<mxfile host="app.diagrams.net" agent="Mozilla/5.0 (Windows NT 10.0; Win64; x64) AppleWebKit/537.36 (KHTML, like Gecko) Chrome/135.0.0.0 Safari/537.36" version="26.2.12">
  <diagram name="Page-1" id="aFi2lYVCa394gXqdoUEC">
    <mxGraphModel dx="1044" dy="527" grid="1" gridSize="10" guides="1" tooltips="1" connect="1" arrows="1" fold="1" page="1" pageScale="1" pageWidth="1800" pageHeight="2500" math="0" shadow="0">
      <root>
        <mxCell id="0" />
        <mxCell id="1" parent="0" />
        <mxCell id="Da5fncGkqisjsAh2ou7L-4" value="[0-9]" style="edgeStyle=orthogonalEdgeStyle;rounded=0;orthogonalLoop=1;jettySize=auto;html=1;exitX=1;exitY=0.5;exitDx=0;exitDy=0;fontSize=16;" parent="1" edge="1">
          <mxGeometry relative="1" as="geometry">
            <mxPoint x="365" y="140" as="sourcePoint" />
            <mxPoint x="485" y="140" as="targetPoint" />
          </mxGeometry>
        </mxCell>
        <mxCell id="Da5fncGkqisjsAh2ou7L-2" value="" style="endArrow=classic;html=1;rounded=0;entryX=0;entryY=0.5;entryDx=0;entryDy=0;fontSize=16;" parent="1" edge="1">
          <mxGeometry width="50" height="50" relative="1" as="geometry">
            <mxPoint x="225" y="140" as="sourcePoint" />
            <mxPoint x="285" y="140" as="targetPoint" />
          </mxGeometry>
        </mxCell>
        <mxCell id="Da5fncGkqisjsAh2ou7L-5" value="start" style="ellipse;whiteSpace=wrap;html=1;aspect=fixed;fontSize=16;" parent="1" vertex="1">
          <mxGeometry x="285" y="100" width="80" height="80" as="geometry" />
        </mxCell>
        <mxCell id="Da5fncGkqisjsAh2ou7L-11" value="[a-zA-Z}" style="edgeStyle=orthogonalEdgeStyle;rounded=0;orthogonalLoop=1;jettySize=auto;html=1;exitX=1;exitY=0.5;exitDx=0;exitDy=0;entryX=0;entryY=0.5;entryDx=0;entryDy=0;fontSize=16;" parent="1" source="Da5fncGkqisjsAh2ou7L-6" edge="1">
          <mxGeometry relative="1" as="geometry">
            <mxPoint x="685" y="140" as="targetPoint" />
          </mxGeometry>
        </mxCell>
        <mxCell id="Da5fncGkqisjsAh2ou7L-6" value="num" style="ellipse;shape=doubleEllipse;whiteSpace=wrap;html=1;aspect=fixed;fontSize=16;" parent="1" vertex="1">
          <mxGeometry x="485" y="100" width="80" height="80" as="geometry" />
        </mxCell>
        <mxCell id="Da5fncGkqisjsAh2ou7L-7" value="[0-9]" style="curved=1;endArrow=classic;html=1;rounded=0;exitX=0.5;exitY=0;exitDx=0;exitDy=0;entryX=0.5;entryY=0;entryDx=0;entryDy=0;fontSize=16;" parent="1" source="Da5fncGkqisjsAh2ou7L-6" target="Da5fncGkqisjsAh2ou7L-6" edge="1">
          <mxGeometry width="50" height="50" relative="1" as="geometry">
            <mxPoint x="500" y="70" as="sourcePoint" />
            <mxPoint x="550" y="20" as="targetPoint" />
            <Array as="points">
              <mxPoint x="500" y="80" />
              <mxPoint x="505" y="40" />
              <mxPoint x="555" y="50" />
            </Array>
          </mxGeometry>
        </mxCell>
        <mxCell id="Da5fncGkqisjsAh2ou7L-23" value="i" style="edgeStyle=orthogonalEdgeStyle;rounded=0;orthogonalLoop=1;jettySize=auto;html=1;exitX=1;exitY=0.5;exitDx=0;exitDy=0;entryX=0;entryY=0.5;entryDx=0;entryDy=0;fontSize=16;" parent="1" source="Da5fncGkqisjsAh2ou7L-12" target="Da5fncGkqisjsAh2ou7L-22" edge="1">
          <mxGeometry relative="1" as="geometry" />
        </mxCell>
        <mxCell id="Da5fncGkqisjsAh2ou7L-12" value="start" style="ellipse;whiteSpace=wrap;html=1;aspect=fixed;fontSize=16;" parent="1" vertex="1">
          <mxGeometry x="285" y="260" width="80" height="80" as="geometry" />
        </mxCell>
        <mxCell id="Da5fncGkqisjsAh2ou7L-20" value="" style="endArrow=classic;html=1;rounded=0;entryX=0;entryY=0.5;entryDx=0;entryDy=0;fontSize=16;" parent="1" edge="1">
          <mxGeometry width="50" height="50" relative="1" as="geometry">
            <mxPoint x="225" y="300" as="sourcePoint" />
            <mxPoint x="285" y="300" as="targetPoint" />
          </mxGeometry>
        </mxCell>
        <mxCell id="Da5fncGkqisjsAh2ou7L-21" value="if" style="ellipse;shape=doubleEllipse;whiteSpace=wrap;html=1;aspect=fixed;fontSize=16;" parent="1" vertex="1">
          <mxGeometry x="685" y="260" width="80" height="80" as="geometry" />
        </mxCell>
        <mxCell id="Da5fncGkqisjsAh2ou7L-24" value="f" style="edgeStyle=orthogonalEdgeStyle;rounded=0;orthogonalLoop=1;jettySize=auto;html=1;exitX=1;exitY=0.5;exitDx=0;exitDy=0;entryX=0;entryY=0.5;entryDx=0;entryDy=0;fontSize=16;" parent="1" source="Da5fncGkqisjsAh2ou7L-22" target="Da5fncGkqisjsAh2ou7L-21" edge="1">
          <mxGeometry relative="1" as="geometry" />
        </mxCell>
        <mxCell id="Da5fncGkqisjsAh2ou7L-22" value="if0" style="ellipse;whiteSpace=wrap;html=1;aspect=fixed;fontSize=16;" parent="1" vertex="1">
          <mxGeometry x="485" y="260" width="80" height="80" as="geometry" />
        </mxCell>
        <mxCell id="Da5fncGkqisjsAh2ou7L-36" value="l" style="edgeStyle=orthogonalEdgeStyle;rounded=0;orthogonalLoop=1;jettySize=auto;html=1;exitX=1;exitY=0.5;exitDx=0;exitDy=0;entryX=0;entryY=0.5;entryDx=0;entryDy=0;fontSize=16;" parent="1" source="Da5fncGkqisjsAh2ou7L-25" target="Da5fncGkqisjsAh2ou7L-33" edge="1">
          <mxGeometry relative="1" as="geometry" />
        </mxCell>
        <mxCell id="Da5fncGkqisjsAh2ou7L-25" value="else0" style="ellipse;whiteSpace=wrap;html=1;aspect=fixed;fontSize=16;" parent="1" vertex="1">
          <mxGeometry x="465" y="500" width="80" height="80" as="geometry" />
        </mxCell>
        <mxCell id="Da5fncGkqisjsAh2ou7L-32" value="e" style="edgeStyle=orthogonalEdgeStyle;rounded=0;orthogonalLoop=1;jettySize=auto;html=1;exitX=1;exitY=0.5;exitDx=0;exitDy=0;entryX=0;entryY=0.5;entryDx=0;entryDy=0;fontSize=16;" parent="1" source="Da5fncGkqisjsAh2ou7L-30" target="Da5fncGkqisjsAh2ou7L-25" edge="1">
          <mxGeometry relative="1" as="geometry" />
        </mxCell>
        <mxCell id="Da5fncGkqisjsAh2ou7L-30" value="start" style="ellipse;whiteSpace=wrap;html=1;aspect=fixed;fontSize=16;" parent="1" vertex="1">
          <mxGeometry x="260" y="500" width="80" height="80" as="geometry" />
        </mxCell>
        <mxCell id="Da5fncGkqisjsAh2ou7L-31" value="" style="endArrow=classic;html=1;rounded=0;entryX=0;entryY=0.5;entryDx=0;entryDy=0;fontSize=16;" parent="1" edge="1">
          <mxGeometry width="50" height="50" relative="1" as="geometry">
            <mxPoint x="200" y="539.5" as="sourcePoint" />
            <mxPoint x="260" y="539.5" as="targetPoint" />
          </mxGeometry>
        </mxCell>
        <mxCell id="Da5fncGkqisjsAh2ou7L-37" value="s" style="edgeStyle=orthogonalEdgeStyle;rounded=0;orthogonalLoop=1;jettySize=auto;html=1;exitX=1;exitY=0.5;exitDx=0;exitDy=0;entryX=0;entryY=0.5;entryDx=0;entryDy=0;fontSize=16;" parent="1" source="Da5fncGkqisjsAh2ou7L-33" target="Da5fncGkqisjsAh2ou7L-34" edge="1">
          <mxGeometry relative="1" as="geometry" />
        </mxCell>
        <mxCell id="Da5fncGkqisjsAh2ou7L-33" value="else1" style="ellipse;whiteSpace=wrap;html=1;aspect=fixed;fontSize=16;" parent="1" vertex="1">
          <mxGeometry x="665" y="500" width="80" height="80" as="geometry" />
        </mxCell>
        <mxCell id="Da5fncGkqisjsAh2ou7L-40" value="e" style="edgeStyle=orthogonalEdgeStyle;rounded=0;orthogonalLoop=1;jettySize=auto;html=1;exitX=1;exitY=0.5;exitDx=0;exitDy=0;entryX=0;entryY=0.5;entryDx=0;entryDy=0;fontSize=16;" parent="1" source="Da5fncGkqisjsAh2ou7L-34" target="Da5fncGkqisjsAh2ou7L-39" edge="1">
          <mxGeometry relative="1" as="geometry" />
        </mxCell>
        <mxCell id="Da5fncGkqisjsAh2ou7L-34" value="else2" style="ellipse;whiteSpace=wrap;html=1;aspect=fixed;fontSize=16;" parent="1" vertex="1">
          <mxGeometry x="865" y="500" width="80" height="80" as="geometry" />
        </mxCell>
        <mxCell id="Da5fncGkqisjsAh2ou7L-39" value="else" style="ellipse;shape=doubleEllipse;whiteSpace=wrap;html=1;aspect=fixed;fontSize=16;" parent="1" vertex="1">
          <mxGeometry x="1065" y="500" width="80" height="80" as="geometry" />
        </mxCell>
        <mxCell id="Da5fncGkqisjsAh2ou7L-41" value="o" style="edgeStyle=orthogonalEdgeStyle;rounded=0;orthogonalLoop=1;jettySize=auto;html=1;exitX=1;exitY=0.5;exitDx=0;exitDy=0;entryX=0;entryY=0.5;entryDx=0;entryDy=0;fontSize=16;" parent="1" source="Da5fncGkqisjsAh2ou7L-42" target="Da5fncGkqisjsAh2ou7L-47" edge="1">
          <mxGeometry relative="1" as="geometry" />
        </mxCell>
        <mxCell id="Da5fncGkqisjsAh2ou7L-42" value="void0" style="ellipse;whiteSpace=wrap;html=1;aspect=fixed;fontSize=16;" parent="1" vertex="1">
          <mxGeometry x="460" y="610" width="80" height="80" as="geometry" />
        </mxCell>
        <mxCell id="Da5fncGkqisjsAh2ou7L-43" value="v" style="edgeStyle=orthogonalEdgeStyle;rounded=0;orthogonalLoop=1;jettySize=auto;html=1;exitX=1;exitY=0.5;exitDx=0;exitDy=0;entryX=0;entryY=0.5;entryDx=0;entryDy=0;fontSize=16;" parent="1" source="Da5fncGkqisjsAh2ou7L-44" target="Da5fncGkqisjsAh2ou7L-42" edge="1">
          <mxGeometry relative="1" as="geometry" />
        </mxCell>
        <mxCell id="Da5fncGkqisjsAh2ou7L-44" value="start" style="ellipse;whiteSpace=wrap;html=1;aspect=fixed;fontSize=16;" parent="1" vertex="1">
          <mxGeometry x="260" y="610" width="80" height="80" as="geometry" />
        </mxCell>
        <mxCell id="Da5fncGkqisjsAh2ou7L-45" value="" style="endArrow=classic;html=1;rounded=0;entryX=0;entryY=0.5;entryDx=0;entryDy=0;fontSize=16;" parent="1" edge="1">
          <mxGeometry width="50" height="50" relative="1" as="geometry">
            <mxPoint x="200" y="650" as="sourcePoint" />
            <mxPoint x="260" y="650" as="targetPoint" />
          </mxGeometry>
        </mxCell>
        <mxCell id="Da5fncGkqisjsAh2ou7L-46" value="i" style="edgeStyle=orthogonalEdgeStyle;rounded=0;orthogonalLoop=1;jettySize=auto;html=1;exitX=1;exitY=0.5;exitDx=0;exitDy=0;entryX=0;entryY=0.5;entryDx=0;entryDy=0;fontSize=16;" parent="1" source="Da5fncGkqisjsAh2ou7L-47" target="Da5fncGkqisjsAh2ou7L-49" edge="1">
          <mxGeometry relative="1" as="geometry" />
        </mxCell>
        <mxCell id="Da5fncGkqisjsAh2ou7L-47" value="void1" style="ellipse;whiteSpace=wrap;html=1;aspect=fixed;fontSize=16;" parent="1" vertex="1">
          <mxGeometry x="660" y="610" width="80" height="80" as="geometry" />
        </mxCell>
        <mxCell id="Da5fncGkqisjsAh2ou7L-48" value="d" style="edgeStyle=orthogonalEdgeStyle;rounded=0;orthogonalLoop=1;jettySize=auto;html=1;exitX=1;exitY=0.5;exitDx=0;exitDy=0;entryX=0;entryY=0.5;entryDx=0;entryDy=0;fontSize=16;" parent="1" source="Da5fncGkqisjsAh2ou7L-49" target="Da5fncGkqisjsAh2ou7L-50" edge="1">
          <mxGeometry relative="1" as="geometry" />
        </mxCell>
        <mxCell id="Da5fncGkqisjsAh2ou7L-49" value="void2" style="ellipse;whiteSpace=wrap;html=1;aspect=fixed;fontSize=16;" parent="1" vertex="1">
          <mxGeometry x="860" y="610" width="80" height="80" as="geometry" />
        </mxCell>
        <mxCell id="Da5fncGkqisjsAh2ou7L-50" value="void" style="ellipse;shape=doubleEllipse;whiteSpace=wrap;html=1;aspect=fixed;fontSize=16;" parent="1" vertex="1">
          <mxGeometry x="1060" y="610" width="80" height="80" as="geometry" />
        </mxCell>
        <mxCell id="Da5fncGkqisjsAh2ou7L-52" value="n" style="edgeStyle=orthogonalEdgeStyle;rounded=0;orthogonalLoop=1;jettySize=auto;html=1;exitX=1;exitY=0.5;exitDx=0;exitDy=0;entryX=0;entryY=0.5;entryDx=0;entryDy=0;fontSize=16;" parent="1" source="Da5fncGkqisjsAh2ou7L-53" target="Da5fncGkqisjsAh2ou7L-58" edge="1">
          <mxGeometry relative="1" as="geometry" />
        </mxCell>
        <mxCell id="Da5fncGkqisjsAh2ou7L-53" value="int0" style="ellipse;whiteSpace=wrap;html=1;aspect=fixed;fontSize=16;" parent="1" vertex="1">
          <mxGeometry x="460" y="380" width="80" height="80" as="geometry" />
        </mxCell>
        <mxCell id="Da5fncGkqisjsAh2ou7L-54" value="i" style="edgeStyle=orthogonalEdgeStyle;rounded=0;orthogonalLoop=1;jettySize=auto;html=1;exitX=1;exitY=0.5;exitDx=0;exitDy=0;entryX=0;entryY=0.5;entryDx=0;entryDy=0;fontSize=16;" parent="1" source="Da5fncGkqisjsAh2ou7L-55" target="Da5fncGkqisjsAh2ou7L-53" edge="1">
          <mxGeometry relative="1" as="geometry" />
        </mxCell>
        <mxCell id="Da5fncGkqisjsAh2ou7L-55" value="start" style="ellipse;whiteSpace=wrap;html=1;aspect=fixed;fontSize=16;" parent="1" vertex="1">
          <mxGeometry x="260" y="380" width="80" height="80" as="geometry" />
        </mxCell>
        <mxCell id="Da5fncGkqisjsAh2ou7L-56" value="" style="endArrow=classic;html=1;rounded=0;entryX=0;entryY=0.5;entryDx=0;entryDy=0;fontSize=16;" parent="1" edge="1">
          <mxGeometry width="50" height="50" relative="1" as="geometry">
            <mxPoint x="200" y="419.5" as="sourcePoint" />
            <mxPoint x="260" y="419.5" as="targetPoint" />
          </mxGeometry>
        </mxCell>
        <mxCell id="Da5fncGkqisjsAh2ou7L-57" value="t" style="edgeStyle=orthogonalEdgeStyle;rounded=0;orthogonalLoop=1;jettySize=auto;html=1;exitX=1;exitY=0.5;exitDx=0;exitDy=0;entryX=0;entryY=0.5;entryDx=0;entryDy=0;fontSize=16;" parent="1" source="Da5fncGkqisjsAh2ou7L-58" edge="1" target="Da5fncGkqisjsAh2ou7L-61">
          <mxGeometry relative="1" as="geometry">
            <mxPoint x="860.0000000000002" y="360" as="targetPoint" />
            <Array as="points" />
          </mxGeometry>
        </mxCell>
        <mxCell id="Da5fncGkqisjsAh2ou7L-58" value="int1" style="ellipse;whiteSpace=wrap;html=1;aspect=fixed;fontSize=16;" parent="1" vertex="1">
          <mxGeometry x="660" y="380" width="80" height="80" as="geometry" />
        </mxCell>
        <mxCell id="Da5fncGkqisjsAh2ou7L-61" value="int" style="ellipse;shape=doubleEllipse;whiteSpace=wrap;html=1;aspect=fixed;fontSize=16;" parent="1" vertex="1">
          <mxGeometry x="895" y="380" width="80" height="80" as="geometry" />
        </mxCell>
        <mxCell id="Da5fncGkqisjsAh2ou7L-62" value="h" style="edgeStyle=orthogonalEdgeStyle;rounded=0;orthogonalLoop=1;jettySize=auto;html=1;exitX=1;exitY=0.5;exitDx=0;exitDy=0;entryX=0;entryY=0.5;entryDx=0;entryDy=0;fontSize=16;" parent="1" source="Da5fncGkqisjsAh2ou7L-63" target="Da5fncGkqisjsAh2ou7L-68" edge="1">
          <mxGeometry relative="1" as="geometry" />
        </mxCell>
        <mxCell id="Da5fncGkqisjsAh2ou7L-63" value="while0" style="ellipse;whiteSpace=wrap;html=1;aspect=fixed;fontSize=16;" parent="1" vertex="1">
          <mxGeometry x="485" y="740" width="80" height="80" as="geometry" />
        </mxCell>
        <mxCell id="Da5fncGkqisjsAh2ou7L-64" value="w" style="edgeStyle=orthogonalEdgeStyle;rounded=0;orthogonalLoop=1;jettySize=auto;html=1;exitX=1;exitY=0.5;exitDx=0;exitDy=0;entryX=0;entryY=0.5;entryDx=0;entryDy=0;fontSize=16;" parent="1" source="Da5fncGkqisjsAh2ou7L-65" target="Da5fncGkqisjsAh2ou7L-63" edge="1">
          <mxGeometry relative="1" as="geometry" />
        </mxCell>
        <mxCell id="Da5fncGkqisjsAh2ou7L-65" value="start" style="ellipse;whiteSpace=wrap;html=1;aspect=fixed;fontSize=16;" parent="1" vertex="1">
          <mxGeometry x="285" y="740" width="80" height="80" as="geometry" />
        </mxCell>
        <mxCell id="Da5fncGkqisjsAh2ou7L-66" value="" style="endArrow=classic;html=1;rounded=0;entryX=0;entryY=0.5;entryDx=0;entryDy=0;fontSize=16;" parent="1" edge="1">
          <mxGeometry width="50" height="50" relative="1" as="geometry">
            <mxPoint x="225" y="780" as="sourcePoint" />
            <mxPoint x="285" y="780" as="targetPoint" />
          </mxGeometry>
        </mxCell>
        <mxCell id="Da5fncGkqisjsAh2ou7L-67" value="i" style="edgeStyle=orthogonalEdgeStyle;rounded=0;orthogonalLoop=1;jettySize=auto;html=1;exitX=1;exitY=0.5;exitDx=0;exitDy=0;entryX=0;entryY=0.5;entryDx=0;entryDy=0;fontSize=16;" parent="1" source="Da5fncGkqisjsAh2ou7L-68" target="Da5fncGkqisjsAh2ou7L-70" edge="1">
          <mxGeometry relative="1" as="geometry" />
        </mxCell>
        <mxCell id="Da5fncGkqisjsAh2ou7L-68" value="while1" style="ellipse;whiteSpace=wrap;html=1;aspect=fixed;fontSize=16;" parent="1" vertex="1">
          <mxGeometry x="685" y="740" width="80" height="80" as="geometry" />
        </mxCell>
        <mxCell id="Da5fncGkqisjsAh2ou7L-69" value="l" style="edgeStyle=orthogonalEdgeStyle;rounded=0;orthogonalLoop=1;jettySize=auto;html=1;exitX=1;exitY=0.5;exitDx=0;exitDy=0;entryX=0;entryY=0.5;entryDx=0;entryDy=0;fontSize=16;" parent="1" source="Da5fncGkqisjsAh2ou7L-70" edge="1">
          <mxGeometry relative="1" as="geometry">
            <mxPoint x="1084.9999999999927" y="780" as="targetPoint" />
          </mxGeometry>
        </mxCell>
        <mxCell id="Da5fncGkqisjsAh2ou7L-70" value="while2" style="ellipse;whiteSpace=wrap;html=1;aspect=fixed;fontSize=16;" parent="1" vertex="1">
          <mxGeometry x="885" y="740" width="80" height="80" as="geometry" />
        </mxCell>
        <mxCell id="Da5fncGkqisjsAh2ou7L-75" value="e" style="edgeStyle=orthogonalEdgeStyle;rounded=0;orthogonalLoop=1;jettySize=auto;html=1;exitX=1;exitY=0.5;exitDx=0;exitDy=0;entryX=0;entryY=0.5;entryDx=0;entryDy=0;fontSize=16;" parent="1" source="Da5fncGkqisjsAh2ou7L-72" target="Da5fncGkqisjsAh2ou7L-74" edge="1">
          <mxGeometry relative="1" as="geometry" />
        </mxCell>
        <mxCell id="Da5fncGkqisjsAh2ou7L-72" value="while3" style="ellipse;whiteSpace=wrap;html=1;aspect=fixed;fontSize=16;" parent="1" vertex="1">
          <mxGeometry x="1085" y="740" width="80" height="80" as="geometry" />
        </mxCell>
        <mxCell id="Da5fncGkqisjsAh2ou7L-74" value="while" style="ellipse;shape=doubleEllipse;whiteSpace=wrap;html=1;aspect=fixed;fontSize=16;" parent="1" vertex="1">
          <mxGeometry x="1285" y="740" width="80" height="80" as="geometry" />
        </mxCell>
        <mxCell id="Da5fncGkqisjsAh2ou7L-82" value="r" style="edgeStyle=orthogonalEdgeStyle;rounded=0;orthogonalLoop=1;jettySize=auto;html=1;exitX=1;exitY=0.5;exitDx=0;exitDy=0;entryX=0;entryY=0.5;entryDx=0;entryDy=0;fontSize=16;" parent="1" source="Da5fncGkqisjsAh2ou7L-83" target="Da5fncGkqisjsAh2ou7L-88" edge="1">
          <mxGeometry relative="1" as="geometry" />
        </mxCell>
        <mxCell id="Da5fncGkqisjsAh2ou7L-83" value="break0" style="ellipse;whiteSpace=wrap;html=1;aspect=fixed;fontSize=16;" parent="1" vertex="1">
          <mxGeometry x="485" y="860" width="80" height="80" as="geometry" />
        </mxCell>
        <mxCell id="Da5fncGkqisjsAh2ou7L-84" value="b" style="edgeStyle=orthogonalEdgeStyle;rounded=0;orthogonalLoop=1;jettySize=auto;html=1;exitX=1;exitY=0.5;exitDx=0;exitDy=0;entryX=0;entryY=0.5;entryDx=0;entryDy=0;fontSize=16;" parent="1" source="Da5fncGkqisjsAh2ou7L-85" target="Da5fncGkqisjsAh2ou7L-83" edge="1">
          <mxGeometry relative="1" as="geometry" />
        </mxCell>
        <mxCell id="Da5fncGkqisjsAh2ou7L-85" value="start" style="ellipse;whiteSpace=wrap;html=1;aspect=fixed;fontSize=16;" parent="1" vertex="1">
          <mxGeometry x="285" y="860" width="80" height="80" as="geometry" />
        </mxCell>
        <mxCell id="Da5fncGkqisjsAh2ou7L-86" value="" style="endArrow=classic;html=1;rounded=0;entryX=0;entryY=0.5;entryDx=0;entryDy=0;fontSize=16;" parent="1" edge="1">
          <mxGeometry width="50" height="50" relative="1" as="geometry">
            <mxPoint x="225" y="900" as="sourcePoint" />
            <mxPoint x="285" y="900" as="targetPoint" />
          </mxGeometry>
        </mxCell>
        <mxCell id="Da5fncGkqisjsAh2ou7L-87" value="e" style="edgeStyle=orthogonalEdgeStyle;rounded=0;orthogonalLoop=1;jettySize=auto;html=1;exitX=1;exitY=0.5;exitDx=0;exitDy=0;entryX=0;entryY=0.5;entryDx=0;entryDy=0;fontSize=16;" parent="1" source="Da5fncGkqisjsAh2ou7L-88" target="Da5fncGkqisjsAh2ou7L-90" edge="1">
          <mxGeometry relative="1" as="geometry" />
        </mxCell>
        <mxCell id="Da5fncGkqisjsAh2ou7L-88" value="break1" style="ellipse;whiteSpace=wrap;html=1;aspect=fixed;fontSize=16;" parent="1" vertex="1">
          <mxGeometry x="685" y="860" width="80" height="80" as="geometry" />
        </mxCell>
        <mxCell id="Da5fncGkqisjsAh2ou7L-89" value="a" style="edgeStyle=orthogonalEdgeStyle;rounded=0;orthogonalLoop=1;jettySize=auto;html=1;exitX=1;exitY=0.5;exitDx=0;exitDy=0;entryX=0;entryY=0.5;entryDx=0;entryDy=0;fontSize=16;" parent="1" source="Da5fncGkqisjsAh2ou7L-90" edge="1">
          <mxGeometry relative="1" as="geometry">
            <mxPoint x="1084.9999999999927" y="900" as="targetPoint" />
          </mxGeometry>
        </mxCell>
        <mxCell id="Da5fncGkqisjsAh2ou7L-90" value="break2" style="ellipse;whiteSpace=wrap;html=1;aspect=fixed;fontSize=16;" parent="1" vertex="1">
          <mxGeometry x="885" y="860" width="80" height="80" as="geometry" />
        </mxCell>
        <mxCell id="Da5fncGkqisjsAh2ou7L-91" value="k" style="edgeStyle=orthogonalEdgeStyle;rounded=0;orthogonalLoop=1;jettySize=auto;html=1;exitX=1;exitY=0.5;exitDx=0;exitDy=0;entryX=0;entryY=0.5;entryDx=0;entryDy=0;fontSize=16;" parent="1" source="Da5fncGkqisjsAh2ou7L-92" target="Da5fncGkqisjsAh2ou7L-93" edge="1">
          <mxGeometry relative="1" as="geometry" />
        </mxCell>
        <mxCell id="Da5fncGkqisjsAh2ou7L-92" value="break3" style="ellipse;whiteSpace=wrap;html=1;aspect=fixed;fontSize=16;" parent="1" vertex="1">
          <mxGeometry x="1085" y="860" width="80" height="80" as="geometry" />
        </mxCell>
        <mxCell id="Da5fncGkqisjsAh2ou7L-93" value="break" style="ellipse;shape=doubleEllipse;whiteSpace=wrap;html=1;aspect=fixed;fontSize=16;" parent="1" vertex="1">
          <mxGeometry x="1285" y="860" width="80" height="80" as="geometry" />
        </mxCell>
        <mxCell id="Da5fncGkqisjsAh2ou7L-94" value="e" style="edgeStyle=orthogonalEdgeStyle;rounded=0;orthogonalLoop=1;jettySize=auto;html=1;exitX=1;exitY=0.5;exitDx=0;exitDy=0;entryX=0;entryY=0.5;entryDx=0;entryDy=0;fontSize=16;" parent="1" source="Da5fncGkqisjsAh2ou7L-95" target="Da5fncGkqisjsAh2ou7L-100" edge="1">
          <mxGeometry relative="1" as="geometry" />
        </mxCell>
        <mxCell id="Da5fncGkqisjsAh2ou7L-95" value="return0" style="ellipse;whiteSpace=wrap;html=1;aspect=fixed;fontSize=16;" parent="1" vertex="1">
          <mxGeometry x="485" y="980" width="80" height="80" as="geometry" />
        </mxCell>
        <mxCell id="Da5fncGkqisjsAh2ou7L-96" value="r" style="edgeStyle=orthogonalEdgeStyle;rounded=0;orthogonalLoop=1;jettySize=auto;html=1;exitX=1;exitY=0.5;exitDx=0;exitDy=0;entryX=0;entryY=0.5;entryDx=0;entryDy=0;fontSize=16;" parent="1" source="Da5fncGkqisjsAh2ou7L-97" target="Da5fncGkqisjsAh2ou7L-95" edge="1">
          <mxGeometry relative="1" as="geometry" />
        </mxCell>
        <mxCell id="Da5fncGkqisjsAh2ou7L-97" value="start" style="ellipse;whiteSpace=wrap;html=1;aspect=fixed;fontSize=16;" parent="1" vertex="1">
          <mxGeometry x="285" y="980" width="80" height="80" as="geometry" />
        </mxCell>
        <mxCell id="Da5fncGkqisjsAh2ou7L-98" value="" style="endArrow=classic;html=1;rounded=0;entryX=0;entryY=0.5;entryDx=0;entryDy=0;fontSize=16;" parent="1" edge="1">
          <mxGeometry width="50" height="50" relative="1" as="geometry">
            <mxPoint x="225" y="1020" as="sourcePoint" />
            <mxPoint x="285" y="1020" as="targetPoint" />
          </mxGeometry>
        </mxCell>
        <mxCell id="Da5fncGkqisjsAh2ou7L-99" value="t" style="edgeStyle=orthogonalEdgeStyle;rounded=0;orthogonalLoop=1;jettySize=auto;html=1;exitX=1;exitY=0.5;exitDx=0;exitDy=0;entryX=0;entryY=0.5;entryDx=0;entryDy=0;fontSize=16;" parent="1" source="Da5fncGkqisjsAh2ou7L-100" target="Da5fncGkqisjsAh2ou7L-102" edge="1">
          <mxGeometry relative="1" as="geometry" />
        </mxCell>
        <mxCell id="Da5fncGkqisjsAh2ou7L-100" value="return1" style="ellipse;whiteSpace=wrap;html=1;aspect=fixed;fontSize=16;" parent="1" vertex="1">
          <mxGeometry x="685" y="980" width="80" height="80" as="geometry" />
        </mxCell>
        <mxCell id="Da5fncGkqisjsAh2ou7L-101" value="u" style="edgeStyle=orthogonalEdgeStyle;rounded=0;orthogonalLoop=1;jettySize=auto;html=1;exitX=1;exitY=0.5;exitDx=0;exitDy=0;entryX=0;entryY=0.5;entryDx=0;entryDy=0;fontSize=16;" parent="1" source="Da5fncGkqisjsAh2ou7L-102" edge="1">
          <mxGeometry relative="1" as="geometry">
            <mxPoint x="1084.9999999999927" y="1020" as="targetPoint" />
          </mxGeometry>
        </mxCell>
        <mxCell id="Da5fncGkqisjsAh2ou7L-102" value="return2" style="ellipse;whiteSpace=wrap;html=1;aspect=fixed;fontSize=16;" parent="1" vertex="1">
          <mxGeometry x="885" y="980" width="80" height="80" as="geometry" />
        </mxCell>
        <mxCell id="Da5fncGkqisjsAh2ou7L-103" value="r" style="edgeStyle=orthogonalEdgeStyle;rounded=0;orthogonalLoop=1;jettySize=auto;html=1;exitX=1;exitY=0.5;exitDx=0;exitDy=0;entryX=0;entryY=0.5;entryDx=0;entryDy=0;fontSize=16;" parent="1" source="Da5fncGkqisjsAh2ou7L-104" edge="1">
          <mxGeometry relative="1" as="geometry">
            <mxPoint x="1285" y="1020" as="targetPoint" />
          </mxGeometry>
        </mxCell>
        <mxCell id="Da5fncGkqisjsAh2ou7L-104" value="return3" style="ellipse;whiteSpace=wrap;html=1;aspect=fixed;fontSize=16;" parent="1" vertex="1">
          <mxGeometry x="1085" y="980" width="80" height="80" as="geometry" />
        </mxCell>
        <mxCell id="Da5fncGkqisjsAh2ou7L-120" value="n" style="edgeStyle=orthogonalEdgeStyle;rounded=0;orthogonalLoop=1;jettySize=auto;html=1;exitX=1;exitY=0.5;exitDx=0;exitDy=0;entryX=0;entryY=0.5;entryDx=0;entryDy=0;fontSize=16;" parent="1" source="Da5fncGkqisjsAh2ou7L-118" target="Da5fncGkqisjsAh2ou7L-119" edge="1">
          <mxGeometry relative="1" as="geometry" />
        </mxCell>
        <mxCell id="Da5fncGkqisjsAh2ou7L-118" value="return4" style="ellipse;whiteSpace=wrap;html=1;aspect=fixed;fontSize=16;" parent="1" vertex="1">
          <mxGeometry x="1285" y="980" width="80" height="80" as="geometry" />
        </mxCell>
        <mxCell id="Da5fncGkqisjsAh2ou7L-119" value="return" style="ellipse;shape=doubleEllipse;whiteSpace=wrap;html=1;aspect=fixed;fontSize=16;" parent="1" vertex="1">
          <mxGeometry x="1485" y="980" width="80" height="80" as="geometry" />
        </mxCell>
        <mxCell id="Da5fncGkqisjsAh2ou7L-124" value=";" style="edgeStyle=orthogonalEdgeStyle;rounded=0;orthogonalLoop=1;jettySize=auto;html=1;exitX=1;exitY=0.5;exitDx=0;exitDy=0;entryX=0;entryY=0.5;entryDx=0;entryDy=0;fontSize=16;" parent="1" source="Da5fncGkqisjsAh2ou7L-121" target="Da5fncGkqisjsAh2ou7L-123" edge="1">
          <mxGeometry relative="1" as="geometry" />
        </mxCell>
        <mxCell id="Da5fncGkqisjsAh2ou7L-121" value="start" style="ellipse;whiteSpace=wrap;html=1;aspect=fixed;fontSize=16;" parent="1" vertex="1">
          <mxGeometry x="285" y="1180" width="80" height="80" as="geometry" />
        </mxCell>
        <mxCell id="Da5fncGkqisjsAh2ou7L-122" value="" style="endArrow=classic;html=1;rounded=0;entryX=0;entryY=0.5;entryDx=0;entryDy=0;fontSize=16;" parent="1" edge="1">
          <mxGeometry width="50" height="50" relative="1" as="geometry">
            <mxPoint x="225" y="1220" as="sourcePoint" />
            <mxPoint x="285" y="1220" as="targetPoint" />
          </mxGeometry>
        </mxCell>
        <mxCell id="Da5fncGkqisjsAh2ou7L-123" value=";" style="ellipse;shape=doubleEllipse;whiteSpace=wrap;html=1;aspect=fixed;fontSize=16;" parent="1" vertex="1">
          <mxGeometry x="485" y="1180" width="80" height="80" as="geometry" />
        </mxCell>
        <mxCell id="Da5fncGkqisjsAh2ou7L-126" value=":" style="edgeStyle=orthogonalEdgeStyle;rounded=0;orthogonalLoop=1;jettySize=auto;html=1;exitX=1;exitY=0.5;exitDx=0;exitDy=0;entryX=0;entryY=0.5;entryDx=0;entryDy=0;fontSize=16;" parent="1" source="Da5fncGkqisjsAh2ou7L-127" target="Da5fncGkqisjsAh2ou7L-129" edge="1">
          <mxGeometry relative="1" as="geometry" />
        </mxCell>
        <mxCell id="Da5fncGkqisjsAh2ou7L-127" value="start" style="ellipse;whiteSpace=wrap;html=1;aspect=fixed;fontSize=16;" parent="1" vertex="1">
          <mxGeometry x="285" y="1300" width="80" height="80" as="geometry" />
        </mxCell>
        <mxCell id="Da5fncGkqisjsAh2ou7L-128" value="" style="endArrow=classic;html=1;rounded=0;entryX=0;entryY=0.5;entryDx=0;entryDy=0;fontSize=16;" parent="1" edge="1">
          <mxGeometry width="50" height="50" relative="1" as="geometry">
            <mxPoint x="225" y="1340" as="sourcePoint" />
            <mxPoint x="285" y="1340" as="targetPoint" />
          </mxGeometry>
        </mxCell>
        <mxCell id="Da5fncGkqisjsAh2ou7L-129" value=":" style="ellipse;shape=doubleEllipse;whiteSpace=wrap;html=1;aspect=fixed;fontSize=16;" parent="1" vertex="1">
          <mxGeometry x="485" y="1300" width="80" height="80" as="geometry" />
        </mxCell>
        <mxCell id="Da5fncGkqisjsAh2ou7L-130" value="," style="edgeStyle=orthogonalEdgeStyle;rounded=0;orthogonalLoop=1;jettySize=auto;html=1;exitX=1;exitY=0.5;exitDx=0;exitDy=0;entryX=0;entryY=0.5;entryDx=0;entryDy=0;fontSize=16;" parent="1" source="Da5fncGkqisjsAh2ou7L-131" target="Da5fncGkqisjsAh2ou7L-133" edge="1">
          <mxGeometry relative="1" as="geometry" />
        </mxCell>
        <mxCell id="Da5fncGkqisjsAh2ou7L-131" value="start" style="ellipse;whiteSpace=wrap;html=1;aspect=fixed;fontSize=16;" parent="1" vertex="1">
          <mxGeometry x="285" y="1420" width="80" height="80" as="geometry" />
        </mxCell>
        <mxCell id="Da5fncGkqisjsAh2ou7L-132" value="" style="endArrow=classic;html=1;rounded=0;entryX=0;entryY=0.5;entryDx=0;entryDy=0;fontSize=16;" parent="1" edge="1">
          <mxGeometry width="50" height="50" relative="1" as="geometry">
            <mxPoint x="225" y="1460" as="sourcePoint" />
            <mxPoint x="285" y="1460" as="targetPoint" />
          </mxGeometry>
        </mxCell>
        <mxCell id="Da5fncGkqisjsAh2ou7L-133" value="," style="ellipse;shape=doubleEllipse;whiteSpace=wrap;html=1;aspect=fixed;fontSize=16;" parent="1" vertex="1">
          <mxGeometry x="485" y="1420" width="80" height="80" as="geometry" />
        </mxCell>
        <mxCell id="Da5fncGkqisjsAh2ou7L-134" value="[" style="edgeStyle=orthogonalEdgeStyle;rounded=0;orthogonalLoop=1;jettySize=auto;html=1;exitX=1;exitY=0.5;exitDx=0;exitDy=0;entryX=0;entryY=0.5;entryDx=0;entryDy=0;fontSize=16;" parent="1" source="Da5fncGkqisjsAh2ou7L-135" target="Da5fncGkqisjsAh2ou7L-137" edge="1">
          <mxGeometry relative="1" as="geometry" />
        </mxCell>
        <mxCell id="Da5fncGkqisjsAh2ou7L-135" value="start" style="ellipse;whiteSpace=wrap;html=1;aspect=fixed;fontSize=16;" parent="1" vertex="1">
          <mxGeometry x="285" y="1540" width="80" height="80" as="geometry" />
        </mxCell>
        <mxCell id="Da5fncGkqisjsAh2ou7L-136" value="" style="endArrow=classic;html=1;rounded=0;entryX=0;entryY=0.5;entryDx=0;entryDy=0;fontSize=16;" parent="1" edge="1">
          <mxGeometry width="50" height="50" relative="1" as="geometry">
            <mxPoint x="225" y="1580" as="sourcePoint" />
            <mxPoint x="285" y="1580" as="targetPoint" />
          </mxGeometry>
        </mxCell>
        <mxCell id="Da5fncGkqisjsAh2ou7L-137" value="[" style="ellipse;shape=doubleEllipse;whiteSpace=wrap;html=1;aspect=fixed;fontSize=16;" parent="1" vertex="1">
          <mxGeometry x="485" y="1540" width="80" height="80" as="geometry" />
        </mxCell>
        <mxCell id="Da5fncGkqisjsAh2ou7L-138" value="]" style="edgeStyle=orthogonalEdgeStyle;rounded=0;orthogonalLoop=1;jettySize=auto;html=1;exitX=1;exitY=0.5;exitDx=0;exitDy=0;entryX=0;entryY=0.5;entryDx=0;entryDy=0;fontSize=16;" parent="1" source="Da5fncGkqisjsAh2ou7L-139" target="Da5fncGkqisjsAh2ou7L-141" edge="1">
          <mxGeometry relative="1" as="geometry" />
        </mxCell>
        <mxCell id="Da5fncGkqisjsAh2ou7L-139" value="start" style="ellipse;whiteSpace=wrap;html=1;aspect=fixed;fontSize=16;" parent="1" vertex="1">
          <mxGeometry x="665" y="1540" width="80" height="80" as="geometry" />
        </mxCell>
        <mxCell id="Da5fncGkqisjsAh2ou7L-140" value="" style="endArrow=classic;html=1;rounded=0;entryX=0;entryY=0.5;entryDx=0;entryDy=0;fontSize=16;" parent="1" edge="1">
          <mxGeometry width="50" height="50" relative="1" as="geometry">
            <mxPoint x="605" y="1580" as="sourcePoint" />
            <mxPoint x="665" y="1580" as="targetPoint" />
          </mxGeometry>
        </mxCell>
        <mxCell id="Da5fncGkqisjsAh2ou7L-141" value="]" style="ellipse;shape=doubleEllipse;whiteSpace=wrap;html=1;aspect=fixed;fontSize=16;" parent="1" vertex="1">
          <mxGeometry x="865" y="1540" width="80" height="80" as="geometry" />
        </mxCell>
        <mxCell id="Da5fncGkqisjsAh2ou7L-142" value="(" style="edgeStyle=orthogonalEdgeStyle;rounded=0;orthogonalLoop=1;jettySize=auto;html=1;exitX=1;exitY=0.5;exitDx=0;exitDy=0;entryX=0;entryY=0.5;entryDx=0;entryDy=0;fontSize=16;" parent="1" source="Da5fncGkqisjsAh2ou7L-143" target="Da5fncGkqisjsAh2ou7L-145" edge="1">
          <mxGeometry relative="1" as="geometry" />
        </mxCell>
        <mxCell id="Da5fncGkqisjsAh2ou7L-143" value="start" style="ellipse;whiteSpace=wrap;html=1;aspect=fixed;fontSize=16;" parent="1" vertex="1">
          <mxGeometry x="285" y="1660" width="80" height="80" as="geometry" />
        </mxCell>
        <mxCell id="Da5fncGkqisjsAh2ou7L-144" value="" style="endArrow=classic;html=1;rounded=0;entryX=0;entryY=0.5;entryDx=0;entryDy=0;fontSize=16;" parent="1" edge="1">
          <mxGeometry width="50" height="50" relative="1" as="geometry">
            <mxPoint x="225" y="1700" as="sourcePoint" />
            <mxPoint x="285" y="1700" as="targetPoint" />
          </mxGeometry>
        </mxCell>
        <mxCell id="Da5fncGkqisjsAh2ou7L-145" value="(" style="ellipse;shape=doubleEllipse;whiteSpace=wrap;html=1;aspect=fixed;fontSize=16;" parent="1" vertex="1">
          <mxGeometry x="485" y="1660" width="80" height="80" as="geometry" />
        </mxCell>
        <mxCell id="Da5fncGkqisjsAh2ou7L-146" value=")" style="edgeStyle=orthogonalEdgeStyle;rounded=0;orthogonalLoop=1;jettySize=auto;html=1;exitX=1;exitY=0.5;exitDx=0;exitDy=0;entryX=0;entryY=0.5;entryDx=0;entryDy=0;fontSize=16;" parent="1" source="Da5fncGkqisjsAh2ou7L-147" target="Da5fncGkqisjsAh2ou7L-149" edge="1">
          <mxGeometry relative="1" as="geometry" />
        </mxCell>
        <mxCell id="Da5fncGkqisjsAh2ou7L-147" value="start" style="ellipse;whiteSpace=wrap;html=1;aspect=fixed;fontSize=16;" parent="1" vertex="1">
          <mxGeometry x="665" y="1660" width="80" height="80" as="geometry" />
        </mxCell>
        <mxCell id="Da5fncGkqisjsAh2ou7L-148" value="" style="endArrow=classic;html=1;rounded=0;entryX=0;entryY=0.5;entryDx=0;entryDy=0;fontSize=16;" parent="1" edge="1">
          <mxGeometry width="50" height="50" relative="1" as="geometry">
            <mxPoint x="605" y="1700" as="sourcePoint" />
            <mxPoint x="665" y="1700" as="targetPoint" />
          </mxGeometry>
        </mxCell>
        <mxCell id="Da5fncGkqisjsAh2ou7L-149" value=")" style="ellipse;shape=doubleEllipse;whiteSpace=wrap;html=1;aspect=fixed;fontSize=16;" parent="1" vertex="1">
          <mxGeometry x="865" y="1660" width="80" height="80" as="geometry" />
        </mxCell>
        <mxCell id="Da5fncGkqisjsAh2ou7L-150" value="{" style="edgeStyle=orthogonalEdgeStyle;rounded=0;orthogonalLoop=1;jettySize=auto;html=1;exitX=1;exitY=0.5;exitDx=0;exitDy=0;entryX=0;entryY=0.5;entryDx=0;entryDy=0;fontSize=16;" parent="1" source="Da5fncGkqisjsAh2ou7L-151" target="Da5fncGkqisjsAh2ou7L-153" edge="1">
          <mxGeometry relative="1" as="geometry" />
        </mxCell>
        <mxCell id="Da5fncGkqisjsAh2ou7L-151" value="start" style="ellipse;whiteSpace=wrap;html=1;aspect=fixed;fontSize=16;" parent="1" vertex="1">
          <mxGeometry x="285" y="1780" width="80" height="80" as="geometry" />
        </mxCell>
        <mxCell id="Da5fncGkqisjsAh2ou7L-152" value="" style="endArrow=classic;html=1;rounded=0;entryX=0;entryY=0.5;entryDx=0;entryDy=0;fontSize=16;" parent="1" edge="1">
          <mxGeometry width="50" height="50" relative="1" as="geometry">
            <mxPoint x="225" y="1820" as="sourcePoint" />
            <mxPoint x="285" y="1820" as="targetPoint" />
          </mxGeometry>
        </mxCell>
        <mxCell id="Da5fncGkqisjsAh2ou7L-153" value="{" style="ellipse;shape=doubleEllipse;whiteSpace=wrap;html=1;aspect=fixed;fontSize=16;" parent="1" vertex="1">
          <mxGeometry x="485" y="1780" width="80" height="80" as="geometry" />
        </mxCell>
        <mxCell id="Da5fncGkqisjsAh2ou7L-154" value="}" style="edgeStyle=orthogonalEdgeStyle;rounded=0;orthogonalLoop=1;jettySize=auto;html=1;exitX=1;exitY=0.5;exitDx=0;exitDy=0;entryX=0;entryY=0.5;entryDx=0;entryDy=0;fontSize=16;" parent="1" source="Da5fncGkqisjsAh2ou7L-155" target="Da5fncGkqisjsAh2ou7L-157" edge="1">
          <mxGeometry relative="1" as="geometry" />
        </mxCell>
        <mxCell id="Da5fncGkqisjsAh2ou7L-155" value="start" style="ellipse;whiteSpace=wrap;html=1;aspect=fixed;fontSize=16;" parent="1" vertex="1">
          <mxGeometry x="665" y="1780" width="80" height="80" as="geometry" />
        </mxCell>
        <mxCell id="Da5fncGkqisjsAh2ou7L-156" value="" style="endArrow=classic;html=1;rounded=0;entryX=0;entryY=0.5;entryDx=0;entryDy=0;fontSize=16;" parent="1" edge="1">
          <mxGeometry width="50" height="50" relative="1" as="geometry">
            <mxPoint x="605" y="1820" as="sourcePoint" />
            <mxPoint x="665" y="1820" as="targetPoint" />
          </mxGeometry>
        </mxCell>
        <mxCell id="Da5fncGkqisjsAh2ou7L-157" value="}" style="ellipse;shape=doubleEllipse;whiteSpace=wrap;html=1;aspect=fixed;fontSize=16;" parent="1" vertex="1">
          <mxGeometry x="865" y="1780" width="80" height="80" as="geometry" />
        </mxCell>
        <mxCell id="Da5fncGkqisjsAh2ou7L-158" value="&amp;nbsp;+&amp;nbsp;" style="edgeStyle=orthogonalEdgeStyle;rounded=0;orthogonalLoop=1;jettySize=auto;html=1;exitX=1;exitY=0.5;exitDx=0;exitDy=0;entryX=0;entryY=0.5;entryDx=0;entryDy=0;fontSize=16;" parent="1" source="Da5fncGkqisjsAh2ou7L-159" target="Da5fncGkqisjsAh2ou7L-161" edge="1">
          <mxGeometry relative="1" as="geometry" />
        </mxCell>
        <mxCell id="Da5fncGkqisjsAh2ou7L-159" value="start" style="ellipse;whiteSpace=wrap;html=1;aspect=fixed;fontSize=16;" parent="1" vertex="1">
          <mxGeometry x="285" y="1900" width="80" height="80" as="geometry" />
        </mxCell>
        <mxCell id="Da5fncGkqisjsAh2ou7L-160" value="" style="endArrow=classic;html=1;rounded=0;entryX=0;entryY=0.5;entryDx=0;entryDy=0;fontSize=16;" parent="1" edge="1">
          <mxGeometry width="50" height="50" relative="1" as="geometry">
            <mxPoint x="225" y="1940" as="sourcePoint" />
            <mxPoint x="285" y="1940" as="targetPoint" />
          </mxGeometry>
        </mxCell>
        <mxCell id="Da5fncGkqisjsAh2ou7L-161" value="+" style="ellipse;shape=doubleEllipse;whiteSpace=wrap;html=1;aspect=fixed;fontSize=16;" parent="1" vertex="1">
          <mxGeometry x="485" y="1900" width="80" height="80" as="geometry" />
        </mxCell>
        <mxCell id="Da5fncGkqisjsAh2ou7L-162" value="-&amp;nbsp;" style="edgeStyle=orthogonalEdgeStyle;rounded=0;orthogonalLoop=1;jettySize=auto;html=1;exitX=1;exitY=0.5;exitDx=0;exitDy=0;entryX=0;entryY=0.5;entryDx=0;entryDy=0;fontSize=16;" parent="1" source="Da5fncGkqisjsAh2ou7L-163" target="Da5fncGkqisjsAh2ou7L-165" edge="1">
          <mxGeometry relative="1" as="geometry" />
        </mxCell>
        <mxCell id="Da5fncGkqisjsAh2ou7L-166" value="&amp;nbsp;-&amp;nbsp;" style="edgeLabel;html=1;align=center;verticalAlign=middle;resizable=0;points=[];fontSize=16;" parent="Da5fncGkqisjsAh2ou7L-162" vertex="1" connectable="0">
          <mxGeometry x="0.0693" y="-3" relative="1" as="geometry">
            <mxPoint as="offset" />
          </mxGeometry>
        </mxCell>
        <mxCell id="Da5fncGkqisjsAh2ou7L-163" value="start" style="ellipse;whiteSpace=wrap;html=1;aspect=fixed;fontSize=16;" parent="1" vertex="1">
          <mxGeometry x="285" y="2020" width="80" height="80" as="geometry" />
        </mxCell>
        <mxCell id="Da5fncGkqisjsAh2ou7L-164" value="" style="endArrow=classic;html=1;rounded=0;entryX=0;entryY=0.5;entryDx=0;entryDy=0;fontSize=16;" parent="1" edge="1">
          <mxGeometry width="50" height="50" relative="1" as="geometry">
            <mxPoint x="225" y="2060" as="sourcePoint" />
            <mxPoint x="285" y="2060" as="targetPoint" />
          </mxGeometry>
        </mxCell>
        <mxCell id="Da5fncGkqisjsAh2ou7L-165" value="-" style="ellipse;shape=doubleEllipse;whiteSpace=wrap;html=1;aspect=fixed;fontSize=16;" parent="1" vertex="1">
          <mxGeometry x="485" y="2020" width="80" height="80" as="geometry" />
        </mxCell>
        <mxCell id="Da5fncGkqisjsAh2ou7L-167" value="*" style="edgeStyle=orthogonalEdgeStyle;rounded=0;orthogonalLoop=1;jettySize=auto;html=1;exitX=1;exitY=0.5;exitDx=0;exitDy=0;entryX=0;entryY=0.5;entryDx=0;entryDy=0;fontSize=16;" parent="1" source="Da5fncGkqisjsAh2ou7L-168" target="Da5fncGkqisjsAh2ou7L-170" edge="1">
          <mxGeometry relative="1" as="geometry" />
        </mxCell>
        <mxCell id="Da5fncGkqisjsAh2ou7L-168" value="start" style="ellipse;whiteSpace=wrap;html=1;aspect=fixed;fontSize=16;" parent="1" vertex="1">
          <mxGeometry x="285" y="2140" width="80" height="80" as="geometry" />
        </mxCell>
        <mxCell id="Da5fncGkqisjsAh2ou7L-169" value="" style="endArrow=classic;html=1;rounded=0;entryX=0;entryY=0.5;entryDx=0;entryDy=0;fontSize=16;" parent="1" edge="1">
          <mxGeometry width="50" height="50" relative="1" as="geometry">
            <mxPoint x="225" y="2180" as="sourcePoint" />
            <mxPoint x="285" y="2180" as="targetPoint" />
          </mxGeometry>
        </mxCell>
        <mxCell id="Da5fncGkqisjsAh2ou7L-176" value="/" style="edgeStyle=orthogonalEdgeStyle;rounded=0;orthogonalLoop=1;jettySize=auto;html=1;exitX=1;exitY=0.5;exitDx=0;exitDy=0;entryX=0;entryY=0.5;entryDx=0;entryDy=0;fontSize=16;" parent="1" source="Da5fncGkqisjsAh2ou7L-170" edge="1">
          <mxGeometry relative="1" as="geometry">
            <mxPoint x="685" y="2180" as="targetPoint" />
          </mxGeometry>
        </mxCell>
        <mxCell id="Da5fncGkqisjsAh2ou7L-170" value="*" style="ellipse;shape=doubleEllipse;whiteSpace=wrap;html=1;aspect=fixed;fontSize=16;" parent="1" vertex="1">
          <mxGeometry x="485" y="2140" width="80" height="80" as="geometry" />
        </mxCell>
        <mxCell id="Da5fncGkqisjsAh2ou7L-177" value="error {unmatched comment}" style="ellipse;shape=doubleEllipse;whiteSpace=wrap;html=1;aspect=fixed;fontSize=12;" parent="1" vertex="1">
          <mxGeometry x="685" y="2140" width="80" height="80" as="geometry" />
        </mxCell>
        <mxCell id="Da5fncGkqisjsAh2ou7L-178" value="error {invalid number}" style="ellipse;shape=doubleEllipse;whiteSpace=wrap;html=1;aspect=fixed;fontSize=12;" parent="1" vertex="1">
          <mxGeometry x="685" y="100" width="80" height="80" as="geometry" />
        </mxCell>
        <mxCell id="Da5fncGkqisjsAh2ou7L-179" value="NUM" style="text;strokeColor=none;fillColor=none;html=1;fontSize=24;fontStyle=1;verticalAlign=middle;align=center;" parent="1" vertex="1">
          <mxGeometry x="65" y="120" width="100" height="40" as="geometry" />
        </mxCell>
        <mxCell id="Da5fncGkqisjsAh2ou7L-180" value="KEYWORD" style="text;strokeColor=none;fillColor=none;html=1;fontSize=24;fontStyle=1;verticalAlign=middle;align=center;" parent="1" vertex="1">
          <mxGeometry x="65" y="280" width="100" height="40" as="geometry" />
        </mxCell>
        <mxCell id="Da5fncGkqisjsAh2ou7L-181" value="SYMBOL" style="text;strokeColor=none;fillColor=none;html=1;fontSize=24;fontStyle=1;verticalAlign=middle;align=center;" parent="1" vertex="1">
          <mxGeometry x="65" y="1200" width="100" height="40" as="geometry" />
        </mxCell>
        <mxCell id="Da5fncGkqisjsAh2ou7L-182" value="+ unclosed comment" style="text;html=1;align=center;verticalAlign=middle;resizable=0;points=[];autosize=1;strokeColor=none;fillColor=none;fontSize=16;" parent="1" vertex="1">
          <mxGeometry x="30" y="1240" width="170" height="30" as="geometry" />
        </mxCell>
        <mxCell id="5kW4i44XCBZ3XhHPNXug-4" style="edgeStyle=orthogonalEdgeStyle;rounded=0;orthogonalLoop=1;jettySize=auto;html=1;exitX=1;exitY=0.5;exitDx=0;exitDy=0;entryX=0;entryY=0.5;entryDx=0;entryDy=0;" edge="1" parent="1" source="5kW4i44XCBZ3XhHPNXug-1" target="5kW4i44XCBZ3XhHPNXug-3">
          <mxGeometry relative="1" as="geometry" />
        </mxCell>
        <mxCell id="5kW4i44XCBZ3XhHPNXug-5" value="/" style="edgeLabel;html=1;align=center;verticalAlign=middle;resizable=0;points=[];" vertex="1" connectable="0" parent="5kW4i44XCBZ3XhHPNXug-4">
          <mxGeometry x="-0.0208" y="-4" relative="1" as="geometry">
            <mxPoint as="offset" />
          </mxGeometry>
        </mxCell>
        <mxCell id="5kW4i44XCBZ3XhHPNXug-1" value="start" style="ellipse;whiteSpace=wrap;html=1;aspect=fixed;fontSize=16;" vertex="1" parent="1">
          <mxGeometry x="280" y="2250" width="80" height="80" as="geometry" />
        </mxCell>
        <mxCell id="5kW4i44XCBZ3XhHPNXug-2" value="" style="endArrow=classic;html=1;rounded=0;entryX=0;entryY=0.5;entryDx=0;entryDy=0;fontSize=16;" edge="1" parent="1">
          <mxGeometry width="50" height="50" relative="1" as="geometry">
            <mxPoint x="220" y="2290" as="sourcePoint" />
            <mxPoint x="280" y="2290" as="targetPoint" />
          </mxGeometry>
        </mxCell>
        <mxCell id="5kW4i44XCBZ3XhHPNXug-9" style="edgeStyle=orthogonalEdgeStyle;rounded=0;orthogonalLoop=1;jettySize=auto;html=1;exitX=1;exitY=0.5;exitDx=0;exitDy=0;entryX=0;entryY=0.5;entryDx=0;entryDy=0;" edge="1" parent="1" source="5kW4i44XCBZ3XhHPNXug-3" target="5kW4i44XCBZ3XhHPNXug-7">
          <mxGeometry relative="1" as="geometry" />
        </mxCell>
        <mxCell id="5kW4i44XCBZ3XhHPNXug-10" value="*" style="edgeLabel;html=1;align=center;verticalAlign=middle;resizable=0;points=[];" vertex="1" connectable="0" parent="5kW4i44XCBZ3XhHPNXug-9">
          <mxGeometry x="-0.05" y="-1" relative="1" as="geometry">
            <mxPoint as="offset" />
          </mxGeometry>
        </mxCell>
        <mxCell id="5kW4i44XCBZ3XhHPNXug-3" value="/" style="ellipse;shape=doubleEllipse;whiteSpace=wrap;html=1;aspect=fixed;fontSize=16;" vertex="1" parent="1">
          <mxGeometry x="485" y="2250" width="80" height="80" as="geometry" />
        </mxCell>
        <mxCell id="5kW4i44XCBZ3XhHPNXug-13" value="" style="edgeStyle=orthogonalEdgeStyle;rounded=0;orthogonalLoop=1;jettySize=auto;html=1;" edge="1" parent="1" source="5kW4i44XCBZ3XhHPNXug-7" target="5kW4i44XCBZ3XhHPNXug-11">
          <mxGeometry relative="1" as="geometry" />
        </mxCell>
        <mxCell id="5kW4i44XCBZ3XhHPNXug-14" value="any character except *" style="edgeLabel;html=1;align=center;verticalAlign=middle;resizable=0;points=[];" vertex="1" connectable="0" parent="5kW4i44XCBZ3XhHPNXug-13">
          <mxGeometry x="0.0667" y="-1" relative="1" as="geometry">
            <mxPoint as="offset" />
          </mxGeometry>
        </mxCell>
        <mxCell id="5kW4i44XCBZ3XhHPNXug-7" value="error {unclosed comment}" style="ellipse;shape=doubleEllipse;whiteSpace=wrap;html=1;aspect=fixed;fontSize=12;" vertex="1" parent="1">
          <mxGeometry x="685" y="2250" width="80" height="80" as="geometry" />
        </mxCell>
        <mxCell id="5kW4i44XCBZ3XhHPNXug-15" style="edgeStyle=orthogonalEdgeStyle;rounded=0;orthogonalLoop=1;jettySize=auto;html=1;exitX=1;exitY=0.5;exitDx=0;exitDy=0;entryX=0;entryY=0.5;entryDx=0;entryDy=0;" edge="1" parent="1" source="5kW4i44XCBZ3XhHPNXug-11" target="5kW4i44XCBZ3XhHPNXug-12">
          <mxGeometry relative="1" as="geometry" />
        </mxCell>
        <mxCell id="5kW4i44XCBZ3XhHPNXug-19" value="\" style="edgeLabel;html=1;align=center;verticalAlign=middle;resizable=0;points=[];" vertex="1" connectable="0" parent="5kW4i44XCBZ3XhHPNXug-15">
          <mxGeometry x="-0.1787" y="-2" relative="1" as="geometry">
            <mxPoint as="offset" />
          </mxGeometry>
        </mxCell>
        <mxCell id="5kW4i44XCBZ3XhHPNXug-11" value="" style="ellipse;whiteSpace=wrap;html=1;aspect=fixed;fontSize=16;" vertex="1" parent="1">
          <mxGeometry x="930" y="2250" width="80" height="80" as="geometry" />
        </mxCell>
        <mxCell id="5kW4i44XCBZ3XhHPNXug-12" value="comment" style="ellipse;shape=doubleEllipse;whiteSpace=wrap;html=1;aspect=fixed;fontSize=16;" vertex="1" parent="1">
          <mxGeometry x="1085" y="2250" width="80" height="80" as="geometry" />
        </mxCell>
        <mxCell id="5kW4i44XCBZ3XhHPNXug-16" style="edgeStyle=orthogonalEdgeStyle;rounded=0;orthogonalLoop=1;jettySize=auto;html=1;exitX=0.5;exitY=1;exitDx=0;exitDy=0;entryX=0.688;entryY=1;entryDx=0;entryDy=0;entryPerimeter=0;" edge="1" parent="1" source="5kW4i44XCBZ3XhHPNXug-11" target="5kW4i44XCBZ3XhHPNXug-7">
          <mxGeometry relative="1" as="geometry" />
        </mxCell>
        <mxCell id="5kW4i44XCBZ3XhHPNXug-17" value="any character except \&amp;nbsp;" style="edgeLabel;html=1;align=center;verticalAlign=middle;resizable=0;points=[];" vertex="1" connectable="0" parent="5kW4i44XCBZ3XhHPNXug-16">
          <mxGeometry x="0.6163" relative="1" as="geometry">
            <mxPoint x="38" as="offset" />
          </mxGeometry>
        </mxCell>
        <mxCell id="5kW4i44XCBZ3XhHPNXug-24" style="edgeStyle=orthogonalEdgeStyle;rounded=0;orthogonalLoop=1;jettySize=auto;html=1;exitX=1;exitY=0.5;exitDx=0;exitDy=0;entryX=0;entryY=0.5;entryDx=0;entryDy=0;" edge="1" parent="1" source="5kW4i44XCBZ3XhHPNXug-20" target="5kW4i44XCBZ3XhHPNXug-23">
          <mxGeometry relative="1" as="geometry" />
        </mxCell>
        <mxCell id="5kW4i44XCBZ3XhHPNXug-27" value="[a-z][A-Z]" style="edgeLabel;html=1;align=center;verticalAlign=middle;resizable=0;points=[];" vertex="1" connectable="0" parent="5kW4i44XCBZ3XhHPNXug-24">
          <mxGeometry x="-0.0815" y="3" relative="1" as="geometry">
            <mxPoint as="offset" />
          </mxGeometry>
        </mxCell>
        <mxCell id="5kW4i44XCBZ3XhHPNXug-20" value="start" style="ellipse;whiteSpace=wrap;html=1;aspect=fixed;fontSize=16;" vertex="1" parent="1">
          <mxGeometry x="280" y="2380" width="80" height="80" as="geometry" />
        </mxCell>
        <mxCell id="5kW4i44XCBZ3XhHPNXug-21" value="" style="endArrow=classic;html=1;rounded=0;entryX=0;entryY=0.5;entryDx=0;entryDy=0;fontSize=16;" edge="1" parent="1">
          <mxGeometry width="50" height="50" relative="1" as="geometry">
            <mxPoint x="220" y="2430" as="sourcePoint" />
            <mxPoint x="280" y="2430" as="targetPoint" />
          </mxGeometry>
        </mxCell>
        <mxCell id="5kW4i44XCBZ3XhHPNXug-23" value="ID" style="ellipse;shape=doubleEllipse;whiteSpace=wrap;html=1;aspect=fixed;fontSize=16;" vertex="1" parent="1">
          <mxGeometry x="495" y="2380" width="80" height="80" as="geometry" />
        </mxCell>
        <mxCell id="5kW4i44XCBZ3XhHPNXug-25" style="edgeStyle=orthogonalEdgeStyle;rounded=0;orthogonalLoop=1;jettySize=auto;html=1;exitX=0.5;exitY=0;exitDx=0;exitDy=0;entryX=0.988;entryY=0.605;entryDx=0;entryDy=0;entryPerimeter=0;" edge="1" parent="1" source="5kW4i44XCBZ3XhHPNXug-23" target="5kW4i44XCBZ3XhHPNXug-23">
          <mxGeometry relative="1" as="geometry" />
        </mxCell>
        <mxCell id="5kW4i44XCBZ3XhHPNXug-26" value="[a-z]+&amp;nbsp; [A-Z]+[0-9]+" style="edgeLabel;html=1;align=center;verticalAlign=middle;resizable=0;points=[];" vertex="1" connectable="0" parent="5kW4i44XCBZ3XhHPNXug-25">
          <mxGeometry x="-0.7048" y="1" relative="1" as="geometry">
            <mxPoint as="offset" />
          </mxGeometry>
        </mxCell>
        <mxCell id="5kW4i44XCBZ3XhHPNXug-28" value="start" style="ellipse;whiteSpace=wrap;html=1;aspect=fixed;fontSize=16;" vertex="1" parent="1">
          <mxGeometry x="285" y="2490" width="80" height="80" as="geometry" />
        </mxCell>
        <mxCell id="5kW4i44XCBZ3XhHPNXug-29" value="" style="endArrow=classic;html=1;rounded=0;entryX=0;entryY=0.5;entryDx=0;entryDy=0;fontSize=16;" edge="1" parent="1">
          <mxGeometry width="50" height="50" relative="1" as="geometry">
            <mxPoint x="225" y="2529.5" as="sourcePoint" />
            <mxPoint x="285" y="2529.5" as="targetPoint" />
          </mxGeometry>
        </mxCell>
        <mxCell id="5kW4i44XCBZ3XhHPNXug-30" value="&lt;font style=&quot;font-size: 12px;&quot;&gt;whitespace&lt;/font&gt;" style="ellipse;shape=doubleEllipse;whiteSpace=wrap;html=1;aspect=fixed;fontSize=16;" vertex="1" parent="1">
          <mxGeometry x="495" y="2480" width="80" height="80" as="geometry" />
        </mxCell>
        <mxCell id="5kW4i44XCBZ3XhHPNXug-31" style="edgeStyle=orthogonalEdgeStyle;rounded=0;orthogonalLoop=1;jettySize=auto;html=1;exitX=1;exitY=0.5;exitDx=0;exitDy=0;entryX=-0.003;entryY=0.635;entryDx=0;entryDy=0;entryPerimeter=0;" edge="1" parent="1" source="5kW4i44XCBZ3XhHPNXug-28" target="5kW4i44XCBZ3XhHPNXug-30">
          <mxGeometry relative="1" as="geometry" />
        </mxCell>
        <mxCell id="5kW4i44XCBZ3XhHPNXug-32" value="blank \n \r \t \v \f" style="edgeLabel;html=1;align=center;verticalAlign=middle;resizable=0;points=[];" vertex="1" connectable="0" parent="5kW4i44XCBZ3XhHPNXug-31">
          <mxGeometry x="-0.1881" relative="1" as="geometry">
            <mxPoint as="offset" />
          </mxGeometry>
        </mxCell>
      </root>
    </mxGraphModel>
  </diagram>
</mxfile>
